# xmcd
#
# Track frame offsets:
#	150
#	10513
#	20086
#	32473
#	42248
#	58508
#	63422
#	68614
#	80771
#	92819
#	103517
#	115690
#	125910
#	132956
#	142531
#
# Disc length: 2079 seconds
#
# Revision: 1
# Processed by: cddbd v1.5.2PL0 Copyright (c) Steve Scherf et al.
# Submitted via: audiograbber 1.83.01
#
DISCID=bf081d0f
DTITLE=Various Artist - Classic Country Golden '60s - CD2
DYEAR=2000
DGENRE=Country
TTITLE0=George Hamilton IV - Abilene
TTITLE1=Jim Reeves - There's A Heartache Following Me
TTITLE2=Burl Ives - Funny Way Of Laughin'
TTITLE3=Eddy Arnold - Misty Blues
TTITLE4=David Houston and Tammy Wynette - My Elusive Dreams
TTITLE5=Buck Owens - Love's Gonna Live Here
TTITLE6=Kitty Wells - Heartbreak USA
TTITLE7=Roger Miller - Walkin' In The Sunshine
TTITLE8=Wanda Jackson - Right Or Wrong
TTITLE9=Cowboy Copas - Alabam
TTITLE10=Hawkshaw Hawkins - Lonesome 7-7203
TTITLE11=Loretta Lynn - You Ain't Woman Enough
TTITLE12=George Jones - The Tender Years
TTITLE13=Jerry Lee Lewis - One Minute Past Eternety
TTITLE14=Patsy Cline - She's Got You
EXTD=
EXTT0=
EXTT1=
EXTT2=
EXTT3=
EXTT4=
EXTT5=
EXTT6=
EXTT7=
EXTT8=
EXTT9=
EXTT10=
EXTT11=
EXTT12=
EXTT13=
EXTT14=
PLAYORDER=
